<svg width="395" height="312" viewBox="0 0 395 312" fill="none" xmlns="http://www.w3.org/2000/svg">
<path d="M394.262 275.51H0V275.707H394.262V275.51Z" fill="#EBEBEB"/>
<path d="M354.757 288.198H328.641V288.395H354.757V288.198Z" fill="#EBEBEB"/>
<path d="M261.175 290.342H254.322V290.539H261.175V290.342Z" fill="#EBEBEB"/>
<path d="M327.852 280.88H312.721V281.077H327.852V280.88Z" fill="#EBEBEB"/>
<path d="M75.4226 282.205H41.3662V282.402H75.4226V282.205Z" fill="#EBEBEB"/>
<path d="M87.4396 282.205H82.4482V282.402H87.4396V282.205Z" fill="#EBEBEB"/>
<path d="M177.536 285.532H103.667V285.73H177.536V285.532Z" fill="#EBEBEB"/>
<path d="M186.881 240.342H34.6245C33.4317 240.34 32.2885 239.865 31.4458 239.02C30.6032 238.176 30.1299 237.032 30.1299 235.839V21.8105C30.1403 20.6245 30.6181 19.4906 31.4597 18.655C32.3012 17.8193 33.4385 17.3494 34.6245 17.3474H186.881C188.075 17.3474 189.22 17.8218 190.064 18.6662C190.909 19.5105 191.383 20.6558 191.383 21.8499V235.839C191.383 237.034 190.909 238.179 190.064 239.023C189.22 239.868 188.075 240.342 186.881 240.342ZM34.6245 17.5051C33.484 17.5072 32.3909 17.9617 31.5852 18.7689C30.7795 19.5761 30.327 20.67 30.327 21.8105V235.839C30.327 236.98 30.7795 238.074 31.5852 238.881C32.3909 239.688 33.484 240.143 34.6245 240.145H186.881C188.022 240.143 189.116 239.688 189.923 238.882C190.73 238.075 191.184 236.981 191.186 235.839V21.8105C191.184 20.6693 190.73 19.5754 189.923 18.7684C189.116 17.9615 188.022 17.5072 186.881 17.5051H34.6245Z" fill="#EBEBEB"/>
<path d="M357.445 240.342H205.181C203.988 240.34 202.844 239.865 202 239.021C201.156 238.177 200.681 237.033 200.679 235.839V21.8105C200.691 20.6238 201.171 19.4899 202.014 18.6545C202.856 17.819 203.994 17.3494 205.181 17.3474H357.445C358.63 17.3515 359.765 17.8223 360.605 18.6577C361.445 19.4931 361.921 20.6259 361.932 21.8105V235.839C361.932 237.031 361.46 238.174 360.619 239.018C359.778 239.862 358.637 240.338 357.445 240.342ZM205.181 17.5051C204.04 17.5072 202.946 17.9615 202.139 18.7684C201.332 19.5754 200.878 20.6693 200.876 21.8105V235.839C200.878 236.981 201.332 238.075 202.139 238.882C202.946 239.688 204.04 240.143 205.181 240.145H357.445C358.586 240.143 359.68 239.688 360.487 238.882C361.294 238.075 361.748 236.981 361.75 235.839V21.8105C361.748 20.6693 361.294 19.5754 360.487 18.7684C359.68 17.9615 358.586 17.5072 357.445 17.5051H205.181Z" fill="#EBEBEB"/>
<path d="M72.5448 35.4836H82.4486C82.4486 35.4836 79.6967 45.1983 74.382 48.1C71.496 49.6771 65.3613 44.9459 65.3613 44.9459C65.3613 44.9459 72.6315 42.1546 72.5448 35.4836Z" fill="#EBEBEB"/>
<path d="M122.15 41.7051C122.15 41.7051 119.28 46.4362 116.126 47.1222C116.266 49.9472 115.534 52.747 114.028 55.1415C119.414 54.7473 125.943 48.3681 122.15 41.7051Z" fill="#F5F5F5"/>
<path d="M49.8117 85.689C49.8117 85.689 46.6576 85.6023 43.7638 82.2668C41.5717 83.7177 41.9265 86.8718 41.9265 86.8718C41.9265 86.8718 46.2634 89.4976 49.8117 90.2861C50.0227 88.761 50.0227 87.2141 49.8117 85.689Z" fill="#E0E0E0"/>
<path d="M353.882 134.42C353.882 134.42 350.775 134.333 347.834 131.005C345.65 132.448 345.997 135.602 345.997 135.602C345.997 135.602 350.334 138.228 353.882 139.017C354.093 137.492 354.093 135.945 353.882 134.42Z" fill="#E0E0E0"/>
<path d="M85.8154 82.2666C84.2384 80.5634 81.8728 75.6982 81.8728 75.6982C81.8728 75.6982 79.6413 78.1979 79.7753 79.7749C79.9094 81.352 84.3724 83.4494 84.3724 83.4494L85.8154 82.2666Z" fill="#F5F5F5"/>
<path d="M83.0788 13.2315C81.0523 11.4021 73.9004 8.05088 73.9004 8.05088C73.9004 8.05088 79.0573 5.9061 81.7856 6.47383C84.5139 7.04157 86.1383 12.3247 86.1383 12.3247L83.0788 13.2315Z" fill="#F5F5F5"/>
<path d="M159.061 33.7095C160.803 33.7095 165.637 32.3533 165.637 32.3533C165.637 32.3533 164.06 35.5074 162.522 36.4299C160.985 37.3525 157.988 35.4837 157.988 35.4837L159.061 33.7095Z" fill="#F5F5F5"/>
<path d="M324.383 47.3114L317.775 43.8183C317.775 43.8183 323.027 38.2986 327.593 38.2986C330.068 38.2986 332.489 43.5817 332.489 43.5817C332.489 43.5817 326.678 42.8405 324.383 47.3114Z" fill="#F5F5F5"/>
<path d="M265.89 10.7634C265.89 10.7634 270.661 7.89318 273.775 8.78421C274.973 6.22434 276.931 4.09593 279.382 2.68892C274.406 0.512591 265.661 3.09895 265.89 10.7634Z" fill="#F0F0F0"/>
<path d="M46.2943 145.554C46.2943 145.554 47.1854 141.966 49.0542 140.933C48.4067 139.162 48.3241 137.233 48.8176 135.413C45.4821 136.746 42.5804 142.061 46.2943 145.554Z" fill="#F0F0F0"/>
<path d="M334.169 4.07667C334.169 4.07667 336.874 5.61429 337.914 9.92752C340.524 9.67519 341.691 6.72611 341.691 6.72611C341.691 6.72611 339.066 2.36557 336.314 0C335.415 1.25425 334.694 2.62596 334.169 4.07667Z" fill="#E6E6E6"/>
<path d="M207.761 9.94328C206.457 10.4198 205.019 10.366 203.755 9.79346C203.014 11.1103 204.031 12.64 204.031 12.64C205.681 12.7442 207.338 12.6302 208.959 12.301C208.666 11.4654 208.263 10.6725 207.761 9.94328Z" fill="#E6E6E6"/>
<path d="M351.106 42.1941C351.698 44.4414 351.516 49.8428 351.516 49.8428C351.516 49.8428 354.671 48.6836 355.278 47.2249C355.885 45.7661 352.912 41.8235 352.912 41.8235L351.106 42.1941Z" fill="#EBEBEB"/>
<path d="M298.125 50.7257C296.044 52.4289 291.723 58.8869 291.723 58.8869C291.723 58.8869 290.398 53.5565 291.328 51.0017C292.259 48.4469 297.637 47.6426 297.637 47.6426L298.125 50.7257Z" fill="#F5F5F5"/>
<path d="M76.0063 158.296L76.6213 163.374C76.7574 164.214 76.8312 165.063 76.8421 165.913L76.7396 168.452C76.6056 171.835 76.4006 175.218 76.0852 178.601C76.0802 178.657 76.0642 178.711 76.0381 178.761C76.012 178.811 75.9763 178.855 75.933 178.891C75.8898 178.927 75.8399 178.954 75.7861 178.97C75.7324 178.987 75.6759 178.992 75.6199 178.987C75.5215 178.975 75.4299 178.931 75.3598 178.861C75.2897 178.791 75.2452 178.699 75.2336 178.601C74.9181 175.218 74.7131 171.835 74.5791 168.452L74.4766 165.913C74.4875 165.063 74.5613 164.214 74.6974 163.374L75.3124 158.296C75.3173 158.25 75.3312 158.206 75.3533 158.166C75.3755 158.126 75.4054 158.09 75.4413 158.062C75.4773 158.033 75.5185 158.012 75.5627 157.999C75.6069 157.987 75.6532 157.983 75.6988 157.989C75.7769 157.998 75.8495 158.034 75.9052 158.09C75.9608 158.145 75.9964 158.218 76.0063 158.296Z" fill="#FAFAFA"/>
<path d="M76.0063 188.772L76.6213 193.851C76.7575 194.688 76.8313 195.534 76.8421 196.382L76.7396 198.921C76.6056 202.304 76.4006 205.694 76.0852 209.077C76.0852 209.19 76.0403 209.298 75.9604 209.378C75.8806 209.458 75.7723 209.503 75.6593 209.503C75.5464 209.503 75.4381 209.458 75.3583 209.378C75.2784 209.298 75.2336 209.19 75.2336 209.077C74.9181 205.694 74.7131 202.304 74.5791 198.921L74.4766 196.382C74.4874 195.534 74.5612 194.688 74.6974 193.851L75.3124 188.772C75.3124 188.68 75.349 188.592 75.414 188.527C75.4791 188.462 75.5673 188.426 75.6593 188.426C75.7514 188.426 75.8396 188.462 75.9047 188.527C75.9697 188.592 76.0063 188.68 76.0063 188.772Z" fill="#F0F0F0"/>
<path d="M70.5731 184.042L64.462 184.649C63.4503 184.785 62.4312 184.859 61.4104 184.869L58.351 184.767C54.2717 184.641 50.2003 184.423 46.1367 184.112C46.0238 184.112 45.9155 184.068 45.8357 183.988C45.7558 183.908 45.7109 183.8 45.7109 183.687C45.7109 183.574 45.7558 183.465 45.8357 183.386C45.9155 183.306 46.0238 183.261 46.1367 183.261C50.2055 182.945 54.2743 182.74 58.351 182.606L61.4026 182.504C62.4233 182.515 63.4425 182.588 64.4541 182.725L70.5652 183.34C70.6116 183.344 70.6567 183.357 70.6979 183.379C70.739 183.4 70.7754 183.43 70.8048 183.466C70.8343 183.502 70.8561 183.544 70.8692 183.588C70.8822 183.633 70.8861 183.68 70.8806 183.726C70.8724 183.806 70.8375 183.88 70.7817 183.937C70.7259 183.995 70.6524 184.031 70.5731 184.042Z" fill="#EBEBEB"/>
<path d="M87.6135 172.229L86.0365 174.69C85.7937 175.108 85.4997 175.495 85.1612 175.841L84.0809 176.787C82.63 178.033 81.1397 179.247 79.5548 180.367C79.4715 180.42 79.3724 180.444 79.274 180.433C79.1756 180.423 79.0837 180.379 79.0137 180.309C78.9438 180.239 78.8998 180.147 78.8892 180.048C78.8786 179.95 78.902 179.851 78.9555 179.768C80.0752 178.191 81.3211 176.692 82.5354 175.241L83.4895 174.161C83.8395 173.827 84.2319 173.541 84.6565 173.31L87.1167 171.733C87.198 171.684 87.2947 171.668 87.3871 171.689C87.4794 171.71 87.5604 171.765 87.6135 171.843C87.6499 171.901 87.6692 171.968 87.6692 172.036C87.6692 172.104 87.6499 172.171 87.6135 172.229Z" fill="#F0F0F0"/>
<path d="M72.3081 187.534L70.1081 190.594C69.7725 191.123 69.3842 191.617 68.949 192.068L67.5691 193.322C65.7082 194.97 63.8157 196.587 61.8286 198.116C61.7842 198.151 61.7334 198.176 61.6791 198.191C61.6249 198.205 61.5683 198.209 61.5126 198.202C61.4569 198.195 61.4032 198.176 61.3545 198.148C61.3059 198.12 61.2634 198.082 61.2294 198.038C61.1742 197.962 61.1445 197.871 61.1445 197.777C61.1445 197.684 61.1742 197.593 61.2294 197.517C62.7591 195.53 64.3834 193.638 66.0236 191.777L67.2773 190.397C67.7304 189.966 68.2242 189.581 68.7519 189.246L71.8192 187.046C71.8564 187.018 71.8985 186.999 71.9434 186.988C71.9882 186.977 72.0347 186.975 72.0802 186.982C72.1257 186.99 72.1693 187.006 72.2085 187.031C72.2476 187.055 72.2815 187.087 72.3081 187.124C72.3505 187.184 72.3733 187.256 72.3733 187.329C72.3733 187.403 72.3505 187.475 72.3081 187.534Z" fill="#FAFAFA"/>
<path d="M71.8192 180.343L66.1181 175.502C65.1457 174.725 64.214 173.899 63.3268 173.026L60.7641 170.321C57.3471 166.72 53.9906 163.054 50.6946 159.321C50.618 159.242 50.5752 159.136 50.5752 159.025C50.5752 158.915 50.618 158.809 50.6946 158.73C50.7706 158.659 50.8706 158.619 50.9745 158.619C51.0785 158.619 51.1785 158.659 51.2545 158.73C54.9921 162.01 58.6718 165.367 62.2938 168.799L64.9984 171.354C65.9052 172.206 66.6543 173.207 67.4744 174.145L72.3081 179.846C72.3731 179.913 72.4095 180.002 72.4095 180.095C72.4095 180.188 72.3731 180.277 72.3081 180.343C72.2421 180.406 72.1546 180.441 72.0636 180.441C71.9726 180.441 71.8851 180.406 71.8192 180.343Z" fill="#F0F0F0"/>
<path d="M277.15 60.0855L272.04 60.7163C271.2 60.8524 270.351 60.9262 269.501 60.9371L266.962 60.8346C263.579 60.7005 260.196 60.4955 256.813 60.1801C256.701 60.1681 256.598 60.1128 256.526 60.026C256.454 59.9391 256.418 59.8275 256.427 59.7149C256.439 59.6165 256.483 59.5249 256.553 59.4548C256.623 59.3847 256.715 59.3402 256.813 59.3285C260.196 59.0131 263.579 58.8081 266.962 58.674L269.501 58.5715C270.351 58.5824 271.2 58.6562 272.04 58.7923L277.118 59.4074C277.21 59.4074 277.298 59.4439 277.363 59.509C277.428 59.5741 277.465 59.6623 277.465 59.7543C277.465 59.8463 277.428 59.9346 277.363 59.9996C277.298 60.0647 277.21 60.1013 277.118 60.1013L277.15 60.0855Z" fill="#FAFAFA"/>
<path d="M246.674 60.0854L241.596 60.7005C240.758 60.8366 239.912 60.9104 239.064 60.9212L236.525 60.8187C233.143 60.6847 229.76 60.4797 226.369 60.1643C226.256 60.1643 226.148 60.1194 226.068 60.0395C225.988 59.9597 225.943 59.8514 225.943 59.7384C225.943 59.6255 225.988 59.5172 226.068 59.4374C226.148 59.3575 226.256 59.3126 226.369 59.3126C229.76 58.9972 233.143 58.7922 236.525 58.6582L239.064 58.5557C239.912 58.5665 240.758 58.6403 241.596 58.7764L246.674 59.3915C246.766 59.3915 246.854 59.4281 246.919 59.4931C246.984 59.5582 247.021 59.6464 247.021 59.7384C247.021 59.8305 246.984 59.9187 246.919 59.9838C246.854 60.0488 246.766 60.0854 246.674 60.0854Z" fill="#F0F0F0"/>
<path d="M251.413 54.6528L250.798 48.5418C250.662 47.5301 250.588 46.5109 250.577 45.4902L250.68 42.4386C250.814 38.3698 251.019 34.2931 251.334 30.2244C251.344 30.1121 251.398 30.0081 251.483 29.9346C251.568 29.861 251.679 29.8235 251.791 29.8301C251.893 29.839 251.988 29.8834 252.06 29.9555C252.132 30.0276 252.177 30.1228 252.186 30.2244C252.501 34.2931 252.706 38.3698 252.84 42.4386L252.943 45.4902C252.932 46.5109 252.858 47.5301 252.722 48.5418L252.107 54.6528C252.104 54.6988 252.092 54.7438 252.071 54.7849C252.05 54.8261 252.021 54.8625 251.986 54.892C251.95 54.9215 251.909 54.9435 251.865 54.9566C251.821 54.9697 251.774 54.9737 251.728 54.9682C251.647 54.9611 251.571 54.9256 251.513 54.8679C251.456 54.8103 251.42 54.7341 251.413 54.6528Z" fill="#EBEBEB"/>
<path d="M263.217 71.6925L260.757 70.1155C260.332 69.884 259.94 69.5976 259.59 69.2639L258.636 68.1599C257.39 66.7091 256.176 65.2187 255.056 63.6338C254.991 63.5404 254.966 63.4253 254.985 63.3132C255.004 63.2011 255.066 63.101 255.159 63.0345C255.231 62.9826 255.318 62.9546 255.407 62.9546C255.496 62.9546 255.583 62.9826 255.655 63.0345C257.232 64.1542 258.731 65.4001 260.181 66.6144L261.262 67.5686C261.596 67.9186 261.882 68.3109 262.113 68.7356L263.69 71.1958C263.739 71.277 263.754 71.3737 263.734 71.4661C263.713 71.5585 263.658 71.6395 263.58 71.6925C263.525 71.7244 263.462 71.7411 263.399 71.7411C263.335 71.7411 263.272 71.7244 263.217 71.6925Z" fill="#F0F0F0"/>
<path d="M247.919 56.3872L244.852 54.1872C244.324 53.8496 243.83 53.4614 243.377 53.0281L242.123 51.6482C240.475 49.7873 238.859 47.8948 237.329 45.9077C237.295 45.8633 237.27 45.8125 237.255 45.7582C237.24 45.704 237.237 45.6474 237.244 45.5917C237.251 45.536 237.269 45.4823 237.298 45.4336C237.326 45.385 237.363 45.3425 237.408 45.3084C237.484 45.2533 237.575 45.2236 237.668 45.2236C237.762 45.2236 237.853 45.2533 237.928 45.3084C239.916 46.8382 241.808 48.4625 243.669 50.1027L245.049 51.3564C245.482 51.8091 245.87 52.303 246.208 52.831L248.408 55.8983C248.464 55.9648 248.493 56.0498 248.489 56.1367C248.486 56.2235 248.449 56.3058 248.388 56.3672C248.327 56.4287 248.244 56.4648 248.157 56.4685C248.071 56.4722 247.986 56.4432 247.919 56.3872Z" fill="#FAFAFA"/>
<path d="M255.112 55.8985L259.946 50.1974C260.722 49.225 261.549 48.2933 262.422 47.4061L265.126 44.8512C268.732 41.429 272.399 38.0699 276.126 34.7739C276.208 34.7068 276.312 34.6726 276.417 34.6778C276.523 34.6829 276.623 34.7272 276.697 34.802C276.772 34.8767 276.816 34.9766 276.821 35.0822C276.827 35.1877 276.792 35.2915 276.725 35.3732C273.435 39.1108 270.075 42.7906 266.648 46.4125L264.093 49.1172C263.206 49.9899 262.274 50.8164 261.302 51.5931L255.601 56.4268C255.567 56.4573 255.527 56.4805 255.483 56.4951C255.44 56.5097 255.394 56.5153 255.348 56.5116C255.302 56.508 255.258 56.495 255.217 56.4737C255.177 56.4523 255.141 56.4229 255.112 56.3874C255.079 56.3557 255.053 56.3178 255.035 56.2757C255.017 56.2337 255.008 56.1886 255.008 56.1429C255.008 56.0972 255.017 56.0521 255.035 56.0101C255.053 55.9681 255.079 55.9301 255.112 55.8985Z" fill="#F0F0F0"/>
<path d="M197.131 311.12C281.568 311.12 350.018 307.124 350.018 302.194C350.018 297.264 281.568 293.268 197.131 293.268C112.694 293.268 44.2441 297.264 44.2441 302.194C44.2441 307.124 112.694 311.12 197.131 311.12Z" fill="#F5F5F5"/>
<path d="M297.487 124.737C296.982 125.107 296.596 125.383 296.154 125.675C295.712 125.967 295.294 126.235 294.861 126.519C294.001 127.055 293.126 127.583 292.251 128.096C290.477 129.089 288.671 130.02 286.802 130.848C284.935 131.691 283.024 132.434 281.077 133.071C280.108 133.418 279.098 133.686 278.097 133.962L276.575 134.333L276.196 134.428L275.928 134.483L275.605 134.546C275.147 134.632 274.683 134.676 274.217 134.68C273.256 134.7 272.299 134.542 271.394 134.215C270.571 133.915 269.8 133.489 269.108 132.953C268.001 132.075 267.058 131.007 266.324 129.799C265.174 127.871 264.303 125.79 263.738 123.617C262.685 119.689 262.134 115.643 262.098 111.576C262.082 111.022 262.269 110.481 262.626 110.056C262.982 109.631 263.482 109.352 264.03 109.271C264.579 109.191 265.138 109.314 265.601 109.618C266.065 109.923 266.401 110.386 266.545 110.922V111.032C267.478 114.554 268.664 118.003 270.093 121.354C270.704 122.828 271.499 124.219 272.459 125.494C272.77 125.908 273.158 126.259 273.602 126.527C273.91 126.661 273.87 126.527 273.862 126.527C274.415 126.289 274.981 126.084 275.558 125.912C276.346 125.588 277.206 125.297 278.018 124.942C279.658 124.279 281.275 123.491 282.875 122.694C284.476 121.898 286.029 121.023 287.606 120.108C288.395 119.666 289.183 119.201 289.917 118.728L292.093 117.332L292.274 117.214C293.27 116.554 294.486 116.312 295.658 116.541C296.831 116.769 297.867 117.45 298.542 118.436C299.217 119.421 299.477 120.633 299.266 121.809C299.056 122.985 298.391 124.031 297.416 124.721L297.487 124.737Z" fill="#FFB573"/>
<path d="M266.836 114.588L267.073 108.028L259.756 110.346C259.663 111.572 259.964 112.795 260.613 113.838C261.262 114.881 262.227 115.691 263.367 116.15L266.836 114.588Z" fill="#FFB573"/>
<path d="M262.941 104.156L260.26 106.23C260.015 106.419 259.821 106.667 259.697 106.951C259.573 107.235 259.523 107.546 259.55 107.854L259.755 110.346L267.073 108.028L265.788 104.913C265.679 104.65 265.51 104.415 265.296 104.227C265.082 104.04 264.827 103.904 264.551 103.831C264.276 103.757 263.987 103.749 263.708 103.805C263.429 103.861 263.166 103.982 262.941 104.156Z" fill="#FFB573"/>
<path d="M296.525 113.35C291.407 114.226 286.029 119.761 286.029 119.761C286.029 119.761 287.338 125.785 288.395 131.786C301.926 130.044 306.2 111.702 296.525 113.35Z" fill="#407BFF"/>
<path d="M290.517 120.739C291.36 136.377 291.36 152.049 290.517 167.688L322.602 170.053C325.417 153.21 324.873 137.243 325.18 121.291C325.267 116.709 323.911 112.499 319.345 112.065C317.658 111.907 313.825 111.86 312.335 111.892C307.831 111.943 303.334 112.259 298.867 112.838C297.905 113.003 296.951 113.193 296.052 113.406C294.41 113.773 292.951 114.712 291.937 116.055C290.923 117.399 290.42 119.059 290.517 120.739Z" fill="#407BFF"/>
<path opacity="0.2" d="M318.153 121.243C318.153 121.243 320.408 128.624 325.037 130.319C325.037 127.378 325.084 124.437 325.14 121.504L318.153 121.243Z" fill="black"/>
<path d="M290.563 165.456C290.563 165.456 267.404 187.787 259.464 204.314C251.208 221.504 236.289 254.181 236.289 254.181L241.194 256.633C241.194 256.633 269.644 219.62 271.544 209.558C281.921 191.982 308.116 183.876 312.602 168.783C303.077 165.953 290.563 165.456 290.563 165.456Z" fill="#FFB573"/>
<path d="M301.083 167.688C301.083 167.688 297.582 199.284 298.638 216.852C299.805 236.1 309.678 270.913 309.678 270.913L314.409 270.669C314.409 270.669 315.836 240.997 310.403 219.769C313.557 205.694 322.814 185.074 322.546 170.045C315.461 168.72 308.286 167.932 301.083 167.688Z" fill="#FFB573"/>
<path d="M317.641 270.416C316.458 269.305 314.834 268.051 314.581 264.952C314.581 264.952 308.935 267.546 309.33 269.683C309.724 271.82 309.622 278.664 305.884 282.954C305.363 283.553 306.925 284.247 308.652 283.6C311.585 282.504 311.845 281.408 312.594 278.925C313.241 276.796 316.45 274.572 317.743 273.358C318.824 272.317 318.824 271.528 317.641 270.416Z" fill="#FFB573"/>
<path d="M239.83 261.001C240.508 259.535 240.303 257.445 242.029 255.245C242.029 255.245 238.875 251.35 237.259 252.769C235.642 254.189 230.951 255.332 225.557 253.558C224.769 253.305 224.343 255.592 226.015 256.357C228.79 257.627 230.84 258.525 233.206 259.606C235.225 260.528 235.571 261.183 237.093 262.058C238.394 262.76 239.143 262.508 239.83 261.001Z" fill="#FFB573"/>
<path d="M301.532 112.917C305.395 111.34 305.056 107.965 304.102 104.826L312.429 97.3433C311.79 101.783 311.025 109.1 314.251 111.876C314.251 111.876 312.429 117.908 303.629 119.446C300.183 118.129 299.269 113.681 301.532 112.917Z" fill="#FFB573"/>
<path opacity="0.2" d="M308.849 100.34L304.118 104.819C304.371 105.589 304.553 106.381 304.662 107.184C305.932 107.295 309.33 105.449 309.393 103.478C309.367 102.411 309.184 101.353 308.849 100.34Z" fill="black"/>
<path d="M332.875 83.7254L329.051 77.7562L336.494 75.8875C336.494 75.8875 338.86 81.8645 336.494 83.3942L332.875 83.7254Z" fill="#FFB573"/>
<path d="M318.895 113.476L319.328 113.295L319.865 113.051L320.969 112.522C321.702 112.152 322.435 111.734 323.153 111.324C324.585 110.485 325.963 109.555 327.277 108.54C328.566 107.533 329.776 106.428 330.896 105.236C331.44 104.637 331.953 104.022 332.473 103.391L333.12 102.516C333.266 102.306 333.396 102.085 333.506 101.854C333.609 101.631 333.696 101.402 333.766 101.168C333.854 100.875 333.906 100.573 333.924 100.269C334.019 99.4171 334.121 98.5655 334.153 97.7139C334.184 96.8623 334.216 95.9949 334.232 95.1354C334.247 94.2759 334.232 93.4085 334.129 92.5491C334.007 90.8158 333.768 89.0928 333.411 87.3921C333.23 86.5405 333.049 85.681 332.796 84.8531C332.686 84.4352 332.544 84.0251 332.41 83.6151L332.024 82.4875L331.905 82.1642C331.723 81.6539 331.731 81.0948 331.928 80.5899C332.125 80.085 332.498 79.6685 332.978 79.4169C333.458 79.1653 334.013 79.0957 334.541 79.221C335.068 79.3462 335.532 79.6577 335.848 80.0983C336.234 80.6266 336.503 81.013 336.794 81.4782C337.086 81.9434 337.33 82.3692 337.583 82.8266C338.087 83.7334 338.529 84.6638 338.947 85.6101C339.748 87.5138 340.379 89.4849 340.832 91.5003C341.299 93.5245 341.595 95.5847 341.715 97.6587C341.786 98.6996 341.786 99.7325 341.778 100.813C341.792 101.457 341.747 102.101 341.644 102.737C341.53 103.431 341.358 104.114 341.131 104.779C340.898 105.432 340.619 106.067 340.295 106.679L340.035 107.137L339.822 107.499L339.396 108.193C338.817 109.117 338.185 110.007 337.504 110.859C336.164 112.547 334.667 114.104 333.033 115.511C331.422 116.902 329.697 118.155 327.876 119.256C326.961 119.793 326.031 120.305 325.069 120.778C324.588 121.015 324.107 121.243 323.602 121.464L322.814 121.78L321.923 122.111C320.808 122.513 319.58 122.464 318.501 121.975C317.421 121.486 316.575 120.595 316.143 119.491C315.71 118.388 315.725 117.16 316.185 116.067C316.644 114.975 317.512 114.105 318.603 113.642L318.895 113.476Z" fill="#FFB573"/>
<path d="M315.149 111.876C318.918 111.876 325.928 108.895 325.928 108.895C325.928 108.895 330.068 116.528 330.659 120.534C328.259 124.09 324.687 126.691 320.566 127.883C315.969 125.47 313.879 119.446 315.149 111.876Z" fill="#407BFF"/>
<path d="M279.217 203.628C279.217 203.628 270.022 199.859 264.834 193.377C270.669 182.212 284.247 166.378 288.245 165.204C288.748 163.907 289.335 162.646 290.004 161.427L316.025 165.298C314.621 177.93 287.362 197.36 279.217 203.628Z" fill="#263238"/>
<path opacity="0.2" d="M298.496 177.678C294.932 179.302 291.399 188.118 290.335 195.097C295.612 190.982 300.642 186.559 305.396 181.849C302.518 179.563 299.206 177.363 298.496 177.678Z" fill="black"/>
<path d="M297.321 205.876C297.321 205.876 304.071 207.752 315.97 205.671C318.146 193.732 326.757 175.115 323.958 169.612C324.51 168.373 324.632 166.985 324.304 165.669L292.212 161.726C289.578 165.716 297.037 193.977 297.321 205.876Z" fill="#263238"/>
<path d="M329.603 72.2603L333.664 71.4718C333.952 71.4195 334.249 71.4698 334.504 71.6138C334.759 71.7579 334.956 71.9866 335.06 72.2603L336.463 75.9112L329.02 77.78L328.609 73.6166C328.572 73.3066 328.654 72.994 328.838 72.7422C329.023 72.4904 329.296 72.3181 329.603 72.2603Z" fill="#FFB573"/>
<path d="M304.37 83.6703C299.26 83.1262 296.903 86.1857 300.167 92.1548C304.26 86.4144 304.37 83.6703 304.37 83.6703Z" fill="#263238"/>
<path d="M316.127 92.7305C314.644 98.5104 314.069 101.964 310.536 104.401C305.229 108.059 298.527 103.991 298.259 97.8875C298.014 92.3678 300.474 83.8754 306.649 82.6453C308.007 82.3695 309.414 82.4454 310.735 82.8658C312.056 83.2862 313.248 84.0371 314.197 85.0474C315.147 86.0576 315.822 87.2937 316.16 88.6383C316.498 89.983 316.486 91.3916 316.127 92.7305Z" fill="#FFB573"/>
<path d="M314.849 98.2975L310.536 95.9319C310.536 95.9319 311.143 92.3441 313.406 91.0746C311.443 89.9864 310.134 87.1714 310.252 85.8624C307.169 86.651 302.651 86.1069 300.79 84.995C297.407 82.9528 297.541 79.0102 300.12 77.512C300.963 80.1299 302.312 81.5019 305.497 80.0037C308.683 78.5055 313.13 77.9614 314.81 80.461C316.489 82.9607 320.613 80.9499 322.892 83.0947C323.428 83.5436 323.833 84.1291 324.064 84.7892C324.295 85.4493 324.343 86.1594 324.203 86.8445C324.063 87.5297 323.741 88.1643 323.27 88.6812C322.799 89.1982 322.197 89.5783 321.528 89.7814C325.463 92.9197 321.93 97.6193 314.849 98.2975Z" fill="#263238"/>
<path d="M319.833 89.4817C320.957 89.2831 322.114 89.5042 323.085 90.1032C324.056 90.7022 324.774 91.6372 325.1 92.7304C323.815 91.4215 321.308 89.5527 319.833 89.4817Z" fill="#263238"/>
<path d="M320.142 89.4107C320.914 89.8763 321.83 90.0412 322.716 89.874C323.602 89.7067 324.395 89.2189 324.944 88.5039C323.619 89.1032 321.238 89.7813 320.142 89.4107Z" fill="#263238"/>
<path d="M317.633 97.9424C316.781 99.1827 315.47 100.034 313.99 100.308C312.035 100.647 311.254 98.8492 311.964 97.1066C312.603 95.5295 314.393 93.4636 316.277 93.9525C318.162 94.4414 318.666 96.4206 317.633 97.9424Z" fill="#FFB573"/>
<path d="M306.949 92.6596C306.855 93.1327 306.531 93.4481 306.216 93.4481C305.901 93.4481 305.727 92.9513 305.822 92.4782C305.916 92.0051 306.24 91.6897 306.547 91.6897C306.855 91.6897 307.036 92.1865 306.949 92.6596Z" fill="#263238"/>
<path d="M301.562 91.6266C301.476 92.0997 301.144 92.4151 300.837 92.4151C300.529 92.4151 300.348 91.9183 300.435 91.4373C300.522 90.9563 300.861 90.6488 301.168 90.6882C301.476 90.7276 301.657 91.1534 301.562 91.6266Z" fill="#263238"/>
<path d="M303.046 92.1548C302.2 93.5006 301.173 94.7237 299.994 95.7899C300.275 96.0848 300.616 96.3151 300.995 96.4648C301.373 96.6146 301.78 96.6803 302.186 96.6573L303.046 92.1548Z" fill="#ED893E"/>
<path d="M304.054 98.6286C303.695 98.6475 303.334 98.621 302.982 98.5497C302.945 98.5421 302.912 98.5208 302.89 98.4901C302.868 98.4594 302.859 98.4215 302.863 98.3841C302.867 98.3652 302.875 98.3473 302.886 98.3314C302.896 98.3156 302.91 98.302 302.927 98.2917C302.943 98.2814 302.961 98.2745 302.98 98.2714C302.999 98.2683 303.018 98.2691 303.037 98.2737C303.626 98.4021 304.236 98.3889 304.819 98.2354C305.401 98.0819 305.939 97.7923 306.388 97.3906C306.414 97.3634 306.45 97.3477 306.488 97.347C306.526 97.3462 306.562 97.3605 306.589 97.3866C306.616 97.4128 306.632 97.4486 306.633 97.4864C306.634 97.5241 306.619 97.5605 306.593 97.5877C305.899 98.2275 304.998 98.5968 304.054 98.6286Z" fill="#263238"/>
<path d="M309.89 90.4516C309.835 90.4446 309.783 90.4224 309.74 90.3876C309.697 90.3528 309.664 90.3068 309.646 90.2545C309.547 89.9106 309.37 89.5945 309.128 89.3315C308.885 89.0686 308.585 88.8662 308.25 88.7405C308.178 88.7203 308.117 88.6725 308.08 88.6075C308.043 88.5426 308.033 88.4657 308.053 88.3936C308.062 88.3574 308.078 88.3235 308.101 88.2938C308.123 88.2641 308.152 88.2393 308.184 88.2208C308.216 88.2024 308.252 88.1908 308.289 88.1866C308.326 88.1824 308.364 88.1857 308.4 88.1965C308.828 88.343 309.214 88.5909 309.526 88.9191C309.838 89.2472 310.065 89.6459 310.19 90.081C310.202 90.1162 310.207 90.1535 310.204 90.1906C310.202 90.2278 310.192 90.264 310.175 90.2971C310.158 90.3303 310.134 90.3597 310.106 90.3835C310.077 90.4073 310.044 90.4252 310.008 90.4359C309.97 90.4488 309.93 90.4541 309.89 90.4516Z" fill="#263238"/>
<path d="M299.812 88.0783C299.747 88.0647 299.688 88.0284 299.647 87.9758C299.623 87.9464 299.605 87.9126 299.595 87.8764C299.585 87.8402 299.582 87.8022 299.586 87.7648C299.59 87.7274 299.602 87.6912 299.621 87.6584C299.639 87.6256 299.664 87.5968 299.694 87.5737C300.038 87.2806 300.448 87.0758 300.889 86.9769C301.33 86.878 301.789 86.8879 302.225 87.0059C302.261 87.0166 302.294 87.0344 302.322 87.0583C302.351 87.0821 302.374 87.1115 302.391 87.1446C302.408 87.1778 302.418 87.214 302.421 87.2512C302.424 87.2883 302.419 87.3256 302.406 87.3608C302.383 87.4315 302.333 87.4902 302.266 87.5242C302.2 87.5581 302.123 87.5646 302.052 87.5421C301.704 87.4571 301.341 87.4556 300.993 87.5378C300.645 87.6201 300.321 87.7837 300.049 88.0152C300.016 88.0418 299.978 88.0612 299.937 88.072C299.896 88.0829 299.854 88.085 299.812 88.0783Z" fill="#263238"/>
<path d="M194.964 243.67H181.172L179.004 197.044H197.132L194.964 243.67Z" fill="#407BFF"/>
<path opacity="0.2" d="M196.43 212.113C194.045 213.986 191.101 215.004 188.068 215.004C185.036 215.004 182.091 213.986 179.706 212.113L178.996 197.052H197.132L196.43 212.113Z" fill="black"/>
<path d="M147.455 173.42C128.317 173.42 110.118 159.1 105.111 140.113L96.2008 106.261C95.3742 103.396 95.2217 100.378 95.7552 97.4438C96.2887 94.5096 97.4938 91.7386 99.2761 89.3475C101.048 87.0929 103.317 85.279 105.907 84.0478C108.496 82.8166 111.336 82.2015 114.203 82.2508H141.462C143.162 82.3097 144.772 83.0263 145.953 84.2495C147.135 85.4727 147.795 87.1068 147.795 88.8074C147.795 90.508 147.135 92.1421 145.953 93.3652C144.772 94.5884 143.162 95.305 141.462 95.3639H114.211C113.352 95.3111 112.493 95.4622 111.703 95.8048C110.914 96.1474 110.217 96.6718 109.669 97.3353C109.116 98.139 108.757 99.0601 108.62 100.026C108.483 100.992 108.572 101.977 108.88 102.902L117.806 136.761C121.284 149.953 134.318 160.291 147.471 160.291C148.351 160.26 149.228 160.407 150.05 160.723C150.872 161.039 151.623 161.517 152.256 162.129C152.889 162.741 153.393 163.474 153.737 164.285C154.081 165.095 154.259 165.967 154.259 166.848C154.259 167.728 154.081 168.6 153.737 169.411C153.393 170.221 152.889 170.954 152.256 171.566C151.623 172.178 150.872 172.656 150.05 172.972C149.228 173.288 148.351 173.435 147.471 173.404L147.455 173.42Z" fill="#407BFF"/>
<path d="M228.673 173.42C227.793 173.451 226.915 173.304 226.093 172.988C225.271 172.672 224.521 172.194 223.887 171.582C223.254 170.97 222.75 170.237 222.406 169.426C222.062 168.616 221.885 167.744 221.885 166.863C221.885 165.983 222.062 165.111 222.406 164.3C222.75 163.49 223.254 162.757 223.887 162.145C224.521 161.533 225.271 161.055 226.093 160.739C226.915 160.423 227.793 160.276 228.673 160.307C241.825 160.307 254.86 149.969 258.337 136.777L267.255 102.918C267.563 101.992 267.652 101.008 267.515 100.042C267.379 99.0759 267.02 98.1549 266.467 97.3511C265.919 96.6877 265.222 96.1632 264.432 95.8206C263.643 95.478 262.784 95.327 261.925 95.3798H234.673C233.793 95.4103 232.916 95.2633 232.094 94.9476C231.272 94.6318 230.521 94.1538 229.888 93.5419C229.255 92.9301 228.751 92.1969 228.407 91.3863C228.063 90.5756 227.885 89.7039 227.885 88.8232C227.885 87.9425 228.063 87.0709 228.407 86.2602C228.751 85.4495 229.255 84.7164 229.888 84.1045C230.521 83.4927 231.272 83.0146 232.094 82.6989C232.916 82.3831 233.793 82.2361 234.673 82.2666H261.925C264.792 82.218 267.631 82.8333 270.22 84.0644C272.81 85.2956 275.079 87.1092 276.852 89.3634C278.634 91.7545 279.839 94.5255 280.372 97.4597C280.906 100.394 280.753 103.412 279.927 106.277L271.009 140.129C266.001 159.1 247.794 173.42 228.673 173.42Z" fill="#407BFF"/>
<g opacity="0.2">
<path opacity="0.2" d="M148.014 88.8278C148.014 87.0893 147.324 85.4218 146.095 84.1916C144.867 82.9615 143.2 82.2694 141.461 82.2673H118.649L120.226 95.3805H141.461C143.199 95.3805 144.866 94.6901 146.095 93.4613C147.324 92.2324 148.014 90.5657 148.014 88.8278Z" fill="black"/>
<path opacity="0.2" d="M147.455 160.307C140.035 160.307 132.663 157.026 127.009 151.791L127.931 159.431C128.339 162.83 129.043 166.186 130.037 169.461C135.487 172.027 141.431 173.372 147.455 173.404C148.335 173.434 149.213 173.288 150.035 172.972C150.857 172.656 151.607 172.178 152.24 171.566C152.874 170.954 153.378 170.221 153.722 169.41C154.066 168.6 154.243 167.728 154.243 166.847C154.243 165.967 154.066 165.095 153.722 164.284C153.378 163.474 152.874 162.741 152.24 162.129C151.607 161.517 150.857 161.039 150.035 160.723C149.213 160.407 148.335 160.26 147.455 160.291V160.307Z" fill="black"/>
<path opacity="0.2" d="M222.104 166.867C222.107 168.605 222.798 170.27 224.026 171.499C225.254 172.727 226.92 173.418 228.657 173.42C234.684 173.389 240.631 172.043 246.083 169.477C247.077 166.202 247.782 162.846 248.189 159.447L249.104 151.807C243.458 157.042 236.085 160.323 228.657 160.323C226.921 160.325 225.257 161.015 224.029 162.241C222.801 163.468 222.109 165.132 222.104 166.867Z" fill="black"/>
<path opacity="0.2" d="M234.673 82.2666C232.973 82.3255 231.363 83.0421 230.182 84.2653C229 85.4885 228.34 87.1226 228.34 88.8232C228.34 90.5238 229 92.1579 230.182 93.3811C231.363 94.6042 232.973 95.3208 234.673 95.3798H255.9L257.477 82.2666H234.673Z" fill="black"/>
</g>
<path d="M182.276 65.345H176.693V66.1335H182.276V65.345Z" fill="#407BFF"/>
<path d="M171.836 65.345H151.792V66.1335H171.836V65.345Z" fill="#407BFF"/>
<path d="M188.064 205.954C174.341 205.955 161.119 200.792 151.027 191.492C140.935 182.191 134.712 169.435 133.593 155.757L126.741 71.9054C126.7 71.4214 126.761 70.9342 126.918 70.4747C127.076 70.0153 127.328 69.5936 127.657 69.2363C127.986 68.879 128.385 68.594 128.83 68.3992C129.275 68.2044 129.756 68.1041 130.242 68.1047H245.895C246.38 68.1053 246.86 68.2064 247.304 68.4016C247.749 68.5968 248.148 68.8818 248.477 69.2388C248.806 69.5958 249.057 70.0171 249.215 70.476C249.373 70.9349 249.435 71.4216 249.396 71.9054L242.543 155.757C241.423 169.436 235.197 182.192 225.104 191.492C215.011 200.792 201.789 205.955 188.064 205.954Z" fill="#407BFF"/>
<path opacity="0.1" d="M170.409 190.823C170.641 191.046 170.787 191.343 170.822 191.663C170.857 191.983 170.778 192.305 170.6 192.573C170.421 192.841 170.154 193.037 169.846 193.128C169.537 193.219 169.206 193.199 168.911 193.07C161.504 189.666 155.136 184.353 150.46 177.675C145.785 170.997 142.97 163.196 142.306 155.071L136.093 79.1363C136.07 78.8496 136.106 78.5613 136.2 78.2894C136.294 78.0175 136.443 77.7679 136.637 77.5563C136.832 77.3446 137.068 77.1753 137.331 77.0592C137.595 76.943 137.879 76.8824 138.166 76.8811H147.589C148.114 76.8797 148.62 77.0775 149.005 77.4346C149.39 77.7917 149.625 78.2815 149.663 78.8051L155.711 158.446C156.547 170.632 161.746 182.109 170.354 190.776L170.409 190.823Z" fill="white"/>
<path d="M216.151 260.292H159.984C159.631 260.291 159.282 260.212 158.962 260.061C158.642 259.91 158.359 259.691 158.133 259.419C157.907 259.146 157.744 258.828 157.656 258.485C157.567 258.143 157.554 257.785 157.619 257.437L159.377 248.093C159.796 245.867 160.98 243.856 162.723 242.41C164.467 240.963 166.661 240.17 168.926 240.169H207.209C209.475 240.17 211.669 240.963 213.412 242.41C215.156 243.856 216.339 245.867 216.758 248.093L218.517 257.437C218.581 257.785 218.569 258.143 218.48 258.485C218.391 258.828 218.228 259.146 218.002 259.419C217.777 259.691 217.494 259.91 217.174 260.061C216.854 260.212 216.505 260.291 216.151 260.292Z" fill="#407BFF"/>
<path opacity="0.2" d="M218.517 257.437H157.619C157.554 257.785 157.567 258.143 157.656 258.485C157.744 258.827 157.907 259.146 158.133 259.418C158.359 259.691 158.642 259.91 158.962 260.061C159.282 260.212 159.631 260.291 159.984 260.292H216.151C216.505 260.291 216.854 260.212 217.174 260.061C217.494 259.91 217.777 259.691 218.002 259.418C218.228 259.146 218.391 258.827 218.48 258.485C218.569 258.143 218.581 257.785 218.517 257.437Z" fill="black"/>
<path d="M233.483 260.292H142.645C141.321 260.292 140.248 261.365 140.248 262.689V297.825C140.248 299.149 141.321 300.223 142.645 300.223H233.483C234.807 300.223 235.88 299.149 235.88 297.825V262.689C235.88 261.365 234.807 260.292 233.483 260.292Z" fill="#407BFF"/>
<path opacity="0.7" d="M233.483 260.292H142.645C141.321 260.292 140.248 261.365 140.248 262.689V297.825C140.248 299.149 141.321 300.223 142.645 300.223H233.483C234.807 300.223 235.88 299.149 235.88 297.825V262.689C235.88 261.365 234.807 260.292 233.483 260.292Z" fill="white"/>
<path d="M110.291 149.433C108.162 138.394 125.991 135.066 134.018 142.108C141.856 148.984 137.771 155.024 148.921 153.21C160.071 151.397 161.206 162.081 155.371 165.976C149.536 169.872 158.856 177.899 148.992 181.353C136.786 185.634 125.336 181.755 117.104 177.694C108.872 173.633 100.506 154.424 110.291 149.433Z" fill="#263238"/>
<path d="M145.924 216.544C145.924 216.544 184.096 237.503 182.101 250.751C177.228 280.604 177.094 296.414 177.094 296.414H171.748C171.748 296.414 166.678 266.545 169.382 251.295C166.055 244.458 125.067 245.878 127.843 216.513L145.924 216.544Z" fill="#263238"/>
<path opacity="0.2" d="M127.985 222.868C129.562 234.034 138.764 239.577 148.101 243.055C141.201 235.24 133.339 226.874 127.985 222.868Z" fill="black"/>
<path d="M177.552 295.421H171.307C171.175 295.416 171.047 295.461 170.947 295.548C170.848 295.634 170.785 295.755 170.771 295.886L170.14 301.011C170.136 301.17 170.164 301.328 170.222 301.475C170.28 301.623 170.367 301.757 170.478 301.871C170.589 301.984 170.722 302.074 170.868 302.135C171.015 302.196 171.172 302.227 171.331 302.225C174.075 302.178 175.4 302.028 178.869 302.028C180.998 302.028 182.299 302.249 185.248 302.249C188.197 302.249 188.205 299.426 186.959 299.166C181.44 298.007 180.651 297.368 178.743 295.854C178.406 295.58 177.987 295.427 177.552 295.421Z" fill="#263238"/>
<path d="M142.14 175.675C143.843 176.204 145.641 176.771 147.399 177.252C149.158 177.733 150.94 178.293 152.706 178.735C154.472 179.176 156.247 179.602 157.989 179.933C158.849 180.083 159.724 180.249 160.56 180.343L161.191 180.43L161.798 180.477L162.397 180.525H162.5C162.5 180.525 162.421 180.58 162.452 180.588C162.484 180.596 162.571 180.54 162.697 180.367C163.027 179.846 163.267 179.273 163.406 178.672C163.801 177.033 164.023 175.357 164.069 173.672C164.163 171.89 164.148 170.061 164.069 168.232C163.99 166.402 163.879 164.518 163.738 162.712V162.649C163.711 162.224 163.841 161.805 164.103 161.47C164.365 161.136 164.741 160.909 165.159 160.833C165.578 160.757 166.009 160.837 166.372 161.059C166.735 161.28 167.004 161.627 167.128 162.034C168.231 165.802 168.949 169.673 169.273 173.586C169.461 175.688 169.397 177.806 169.084 179.894C168.885 181.156 168.477 182.377 167.877 183.505C167.476 184.237 166.941 184.887 166.3 185.421C165.55 186.044 164.66 186.474 163.706 186.675C163.477 186.722 163.233 186.762 163.012 186.786H162.673H160.781L159.992 186.746C158.943 186.699 157.95 186.573 156.94 186.446C154.953 186.186 152.998 185.824 151.113 185.39C147.314 184.561 143.567 183.508 139.893 182.236C139.057 181.915 138.377 181.286 137.993 180.478C137.609 179.671 137.55 178.746 137.829 177.896C138.107 177.046 138.702 176.336 139.49 175.912C140.278 175.488 141.198 175.384 142.061 175.62L142.14 175.675Z" fill="#803E3C"/>
<path d="M165.858 157.784L161.269 160.938C161.269 160.938 161.6 161.498 162.451 162.862C163.303 164.226 164.722 165.062 166.008 164.202C169.201 162.602 165.858 157.784 165.858 157.784Z" fill="#7F3E3B"/>
<path d="M161.356 158.225L162.357 157.019C162.531 156.809 162.748 156.64 162.994 156.524C163.24 156.408 163.509 156.348 163.781 156.348C164.053 156.348 164.321 156.408 164.568 156.524C164.814 156.64 165.031 156.809 165.204 157.019L165.859 157.807L161.269 160.961L161.001 159.936C160.914 159.644 160.901 159.335 160.963 159.036C161.025 158.738 161.16 158.459 161.356 158.225Z" fill="#7F3E3B"/>
<path d="M147.509 183.198C147.825 188.946 147.32 198.803 145.932 216.544H118.018C118.46 205.907 117.805 201.949 111.529 182.228C111.378 181.753 111.327 181.253 111.377 180.758C111.428 180.262 111.579 179.783 111.822 179.348C112.065 178.914 112.395 178.534 112.791 178.231C113.186 177.929 113.64 177.711 114.123 177.591C116.696 176.931 119.302 176.404 121.929 176.014C126.069 175.348 130.251 174.979 134.443 174.91C136.083 174.91 137.794 174.981 139.379 175.076C141.496 175.193 143.496 176.086 144.995 177.584C146.495 179.083 147.39 181.081 147.509 183.198Z" fill="#7F3E3B"/>
<path opacity="0.2" d="M114.691 183.174C115.115 185.968 114.992 188.817 114.328 191.564C113.8 189.679 113.208 187.661 112.538 185.453L114.691 183.174Z" fill="black"/>
<path opacity="0.2" d="M133.569 188.883C133.569 186.234 130.131 182.922 127.726 182.378C129.46 183.355 132.693 186.825 133.569 188.883Z" fill="black"/>
<path d="M121.914 161.845C123.057 165.787 124.5 173.105 121.914 176.038C121.914 176.038 123.381 180.028 130.864 179.366C139.088 178.632 134.428 174.934 134.428 174.934C129.847 174.256 129.697 170.921 130.17 167.719L121.914 161.845Z" fill="#7F3E3B"/>
<path opacity="0.2" d="M125.281 164.241L130.17 167.719C130.043 168.464 129.983 169.218 129.988 169.974C128.246 169.872 125.722 168.2 125.383 166.418C125.215 165.705 125.18 164.967 125.281 164.241Z" fill="black"/>
<path d="M115.52 157.468C118.776 163.39 120.03 165.968 124.588 167.648C131.448 170.163 137.992 164.872 136.597 158.091C135.311 151.988 130.202 143.322 123.081 143.716C121.511 143.796 119.988 144.276 118.655 145.111C117.322 145.946 116.225 147.107 115.468 148.485C114.71 149.862 114.317 151.411 114.326 152.983C114.335 154.555 114.746 156.099 115.52 157.468Z" fill="#7F3E3B"/>
<path d="M113.208 148.984C115.968 145.214 120.305 153.242 120.818 155.773C121.33 158.304 120.155 161.868 116.213 161.584C112.27 161.3 110.251 153.029 113.208 148.984Z" fill="#263238"/>
<path d="M112.648 147.998C118.499 150.868 121.898 149.196 124.263 147.714C126.629 146.232 135.043 147.06 133.134 145.151C131.226 143.243 128.285 141.54 123.475 142.289C118.665 143.038 112.648 147.998 112.648 147.998Z" fill="#263238"/>
<path d="M92.1945 294.774L85.7995 293.015C85.6874 292.984 85.5678 292.994 85.4623 293.043C85.3567 293.092 85.2722 293.178 85.2239 293.283L82.9372 298.212C82.8824 298.335 82.8549 298.468 82.8565 298.602C82.8581 298.736 82.8888 298.869 82.9465 298.99C83.0042 299.112 83.0876 299.219 83.1908 299.305C83.294 299.391 83.4146 299.454 83.5443 299.489C85.7838 300.065 86.6984 299.371 89.1823 300.909C91.0511 302.06 93.5507 302.186 96.4367 302.186C98.8654 302.186 99.1414 299.655 98.0847 299.458C93.3536 298.574 93.8582 297.005 93.0382 295.389C92.9469 295.234 92.825 295.1 92.6799 294.994C92.5348 294.888 92.3696 294.813 92.1945 294.774Z" fill="#263238"/>
<path d="M138.269 216.544C138.269 216.544 134.239 241.273 130.383 261.396C129.8 264.439 128.42 267.523 125.771 269.139C112.019 277.537 91.6669 295.413 91.6669 295.413L85.7529 293.536C85.7529 293.536 104.946 263.935 114.928 262.594C114.928 254.299 107.043 233.174 118.019 216.544H138.269Z" fill="#263238"/>
<path d="M117.648 215.488C117.364 215.633 117.148 215.883 117.044 216.184C116.939 216.485 116.955 216.814 117.088 217.104C117.38 217.538 134.136 218.003 138.496 217.971C142.857 217.94 147.612 217.727 147.336 216.946C147.06 216.166 147.233 214.833 146.65 214.802C146.066 214.77 119.39 214.983 117.648 215.488Z" fill="#407BFF"/>
<path d="M125.233 155.079C125.47 155.576 125.927 155.867 126.25 155.702C126.574 155.536 126.645 155.024 126.416 154.527C126.187 154.03 125.722 153.738 125.399 153.904C125.076 154.07 125.005 154.551 125.233 155.079Z" fill="#263238"/>
<path d="M130.895 152.429C131.124 152.926 131.581 153.218 131.905 153.052C132.228 152.887 132.307 152.366 132.07 151.869C131.834 151.373 131.384 151.081 131.053 151.254C130.722 151.428 130.619 151.933 130.895 152.429Z" fill="#263238"/>
<path d="M130.895 151.349L131.927 150.442C131.927 150.442 131.746 151.657 130.895 151.349Z" fill="#263238"/>
<path d="M129.808 153.802C130.784 154.734 131.882 155.53 133.072 156.167C132.908 156.463 132.682 156.72 132.41 156.922C132.138 157.123 131.826 157.264 131.495 157.334L129.808 153.802Z" fill="#630F0F"/>
<path d="M130.185 160.275C130.455 160.201 130.719 160.106 130.974 159.992C130.994 159.982 131.011 159.969 131.026 159.953C131.041 159.937 131.052 159.918 131.059 159.897C131.067 159.877 131.07 159.855 131.069 159.833C131.068 159.812 131.062 159.79 131.053 159.771C131.044 159.752 131.031 159.735 131.015 159.722C130.999 159.708 130.981 159.697 130.961 159.691C130.941 159.684 130.92 159.682 130.9 159.683C130.879 159.685 130.859 159.69 130.84 159.7C130.229 160.009 129.554 160.171 128.869 160.171C128.184 160.171 127.508 160.009 126.897 159.7C126.861 159.678 126.819 159.671 126.778 159.68C126.737 159.689 126.701 159.713 126.677 159.747C126.655 159.784 126.647 159.828 126.656 159.871C126.665 159.913 126.689 159.95 126.724 159.976C127.793 160.53 129.037 160.637 130.185 160.275Z" fill="#263238"/>
<path d="M116.134 163.224C117.073 164.136 118.335 164.638 119.643 164.62C121.37 164.581 121.741 162.909 120.834 161.537C120.045 160.307 118.153 158.832 116.615 159.534C116.283 159.695 115.995 159.936 115.779 160.235C115.563 160.534 115.425 160.883 115.377 161.249C115.329 161.615 115.374 161.988 115.506 162.333C115.638 162.677 115.854 162.984 116.134 163.224Z" fill="#7F3E3B"/>
<path d="M123.223 154.409C123.287 154.389 123.344 154.349 123.385 154.296C123.426 154.242 123.449 154.177 123.451 154.109C123.491 152.619 125.084 151.538 125.099 151.53C125.135 151.507 125.165 151.476 125.188 151.441C125.212 151.405 125.228 151.365 125.236 151.324C125.244 151.282 125.244 151.239 125.235 151.197C125.227 151.156 125.21 151.116 125.186 151.081C125.164 151.045 125.134 151.014 125.1 150.99C125.065 150.966 125.026 150.95 124.984 150.942C124.943 150.933 124.9 150.934 124.859 150.943C124.818 150.952 124.779 150.969 124.745 150.994C124.666 151.042 122.852 152.272 122.805 154.093C122.804 154.136 122.811 154.178 122.826 154.217C122.842 154.257 122.865 154.293 122.894 154.324C122.923 154.355 122.958 154.38 122.997 154.397C123.036 154.414 123.078 154.423 123.12 154.424L123.223 154.409Z" fill="#263238"/>
<path d="M132.094 148.447C132.147 148.43 132.194 148.4 132.233 148.361C132.271 148.321 132.3 148.272 132.315 148.219C132.326 148.177 132.328 148.134 132.322 148.092C132.315 148.05 132.301 148.009 132.279 147.972C132.257 147.936 132.228 147.904 132.193 147.878C132.159 147.853 132.12 147.835 132.078 147.825C131.586 147.683 131.067 147.664 130.565 147.768C130.064 147.873 129.595 148.098 129.2 148.424C129.17 148.454 129.146 148.49 129.13 148.529C129.114 148.568 129.105 148.61 129.105 148.653C129.105 148.695 129.114 148.737 129.13 148.776C129.146 148.816 129.17 148.851 129.2 148.881C129.23 148.912 129.265 148.937 129.304 148.954C129.344 148.971 129.386 148.979 129.429 148.979C129.472 148.979 129.514 148.971 129.553 148.954C129.593 148.937 129.628 148.912 129.658 148.881C129.977 148.632 130.35 148.461 130.747 148.383C131.145 148.305 131.555 148.322 131.944 148.432C131.992 148.449 132.044 148.454 132.094 148.447Z" fill="#263238"/>
<path d="M116.939 184.026C114.486 186.722 112.01 189.616 109.747 192.51C108.612 193.961 107.539 195.451 106.593 196.942C105.643 198.332 104.835 199.814 104.18 201.365C103.938 201.923 103.779 202.512 103.707 203.116V203.329C103.709 203.352 103.709 203.376 103.707 203.4L103.77 203.652L103.896 204.157L104.086 204.74C104.691 206.429 105.386 208.085 106.167 209.7C107.744 213.075 109.534 216.473 111.245 219.864C111.439 220.243 111.486 220.68 111.378 221.092C111.271 221.504 111.015 221.862 110.661 222.097C110.306 222.333 109.877 222.43 109.456 222.37C109.035 222.31 108.65 222.097 108.375 221.772C105.824 218.779 103.477 215.618 101.349 212.31C100.223 210.59 99.2242 208.79 98.3609 206.924L98.0298 206.136C97.9273 205.86 97.8326 205.56 97.7301 205.269L97.5882 204.835C97.5409 204.653 97.4857 204.401 97.4463 204.196C97.3863 203.791 97.3521 203.383 97.3438 202.974C97.3651 201.658 97.5967 200.353 98.0298 199.11C98.7596 197.073 99.7004 195.117 100.837 193.275C101.901 191.509 103.053 189.861 104.235 188.252C105.418 186.644 106.64 185.098 107.926 183.576C109.211 182.054 110.488 180.611 111.916 179.137C112.229 178.804 112.605 178.536 113.021 178.348C113.438 178.161 113.888 178.057 114.345 178.043C114.802 178.029 115.257 178.105 115.684 178.267C116.112 178.429 116.503 178.674 116.836 178.987C117.169 179.3 117.437 179.676 117.625 180.093C117.812 180.51 117.916 180.959 117.93 181.416C117.944 181.873 117.868 182.328 117.706 182.756C117.544 183.183 117.299 183.574 116.986 183.907L116.939 184.026Z" fill="#803E3C"/>
<path d="M125.273 153.999L126.299 153.092C126.299 153.092 126.164 154.314 125.273 153.999Z" fill="#263238"/>
<path d="M110.607 219.005L117.435 221.764L111.309 225.005C111.309 225.005 107.65 222.6 107.902 219.777L110.607 219.005Z" fill="#7F3E3B"/>
<path d="M118.91 227.363L115.953 228.727C115.682 228.852 115.377 228.886 115.085 228.825C114.793 228.764 114.527 228.611 114.329 228.388L111.309 225.005L117.435 221.764L119.533 225.407C119.63 225.575 119.69 225.76 119.711 225.952C119.732 226.144 119.712 226.339 119.654 226.523C119.595 226.707 119.498 226.877 119.37 227.021C119.242 227.166 119.086 227.282 118.91 227.363Z" fill="#7F3E3B"/>
<path d="M144.347 179.444C143.235 176.29 142.32 175.328 142.32 175.328C141.423 175.003 140.475 174.84 139.521 174.847C140.735 178.364 144 186.786 132.18 187.716C120.36 188.647 116.11 176.74 116.11 176.74C113.997 176.74 113.208 177.489 113.208 177.489C116.827 186.163 120.502 194.836 115.574 197.62C116.409 201.775 116.543 207.082 116.291 212.484C121.077 211.522 140.207 208.896 148.14 209.913C148.061 204.575 147.816 200.025 147.461 196.161C150.426 192.455 146.113 182.938 144.347 179.444Z" fill="#407BFF"/>
<path opacity="0.8" d="M144.347 179.444C143.235 176.29 142.32 175.328 142.32 175.328C141.423 175.003 140.475 174.84 139.521 174.847C140.735 178.364 144 186.786 132.18 187.716C120.36 188.647 116.11 176.74 116.11 176.74C113.997 176.74 113.208 177.489 113.208 177.489C116.827 186.163 120.502 194.836 115.574 197.62C116.409 201.775 116.543 207.082 116.291 212.484C121.077 211.522 140.207 208.896 148.14 209.913C148.061 204.575 147.816 200.025 147.461 196.161C150.426 192.455 146.113 182.938 144.347 179.444Z" fill="#FAFAFA"/>
</svg>
