<svg width="459" height="443" viewBox="0 0 459 443" fill="none" xmlns="http://www.w3.org/2000/svg">
<path fill-rule="evenodd" clip-rule="evenodd" d="M215.965 205.394C215.965 228.867 196.212 247.896 171.845 247.896C147.477 247.896 127.724 228.867 127.724 205.394C127.724 181.921 147.477 162.892 171.845 162.892C196.212 162.892 215.965 181.921 215.965 205.394Z" fill="#ECF6FF"/>
<path d="M171.845 193.11V280.044" stroke="#B6D4FF" stroke-width="1.21074"/>
<path d="M171.845 233.419L181.666 223.957" stroke="#B6D4FF" stroke-width="1.21074"/>
<path d="M172.215 205.018L177.272 200.147" stroke="#B6D4FF" stroke-width="1.21074"/>
<path d="M171.845 219.302L162.432 210.235" stroke="#B6D4FF" stroke-width="1.21074"/>
<path fill-rule="evenodd" clip-rule="evenodd" d="M393.566 234.724C393.566 254.961 379.848 264.044 362.992 264.044C346.138 264.044 332.42 254.961 332.42 234.724C332.42 197.026 349.105 161.82 362.992 161.82C376.881 161.82 393.566 197.026 393.566 234.724Z" fill="#ECF6FF"/>
<path d="M362.993 201.959V280.842" stroke="#CCE3FF" stroke-width="1.21074" stroke-linecap="square"/>
<path d="M363.549 250.762L374.903 239.825" stroke="#CCE3FF" stroke-width="1.21074" stroke-linecap="square"/>
<path d="M363.364 215.574L370.418 208.777" stroke="#CCE3FF" stroke-width="1.21074" stroke-linecap="square"/>
<path d="M362.623 234.791L352.155 224.707" stroke="#CCE3FF" stroke-width="1.21074" stroke-linecap="square"/>
<path fill-rule="evenodd" clip-rule="evenodd" d="M322.975 227.492C322.975 247.97 309.117 259.394 291.066 259.394C273.015 259.394 259.155 247.97 259.155 227.492C259.155 184.376 279.523 134.669 291.066 134.669C302.609 134.669 322.975 184.376 322.975 227.492Z" fill="#CCE3FF"/>
<path d="M291.066 197.032V291.551" stroke="#ECF6FF" stroke-width="1.21074" stroke-linecap="square"/>
<path d="M291.446 247.102L302.741 236.211" stroke="#ECF6FF" stroke-width="1.21074" stroke-linecap="square"/>
<path d="M290.12 226.352L280.878 217.44" stroke="#ECF6FF" stroke-width="1.21074" stroke-linecap="square"/>
<path d="M291.621 212.392L298.676 205.588" stroke="#ECF6FF" stroke-width="1.21074" stroke-linecap="square"/>
<path fill-rule="evenodd" clip-rule="evenodd" d="M280.62 301.823L289.355 341.093H295.132L286.397 301.823H280.62Z" fill="#CCE3FF"/>
<path fill-rule="evenodd" clip-rule="evenodd" d="M140.197 301.823H289.759V295.75H140.197V301.823Z" fill="#D7EBFF"/>
<path fill-rule="evenodd" clip-rule="evenodd" d="M258.046 323.823H287.205V317.748H258.046V323.823Z" fill="#D7EBFF"/>
<path fill-rule="evenodd" clip-rule="evenodd" d="M171.1 261.846L164.544 295.75H172.454L179.01 261.846H171.1Z" fill="#CCE3FF"/>
<path fill-rule="evenodd" clip-rule="evenodd" d="M285.107 261.846L278.553 295.75H286.462L293.017 261.846H285.107Z" fill="#CCE3FF"/>
<path fill-rule="evenodd" clip-rule="evenodd" d="M254.686 301.823H289.759V295.75H254.686V301.823Z" fill="#B6D4FF"/>
<path fill-rule="evenodd" clip-rule="evenodd" d="M300.905 283.946L299.734 290.022H291.822L292.997 283.946H300.905Z" fill="#CCE3FF"/>
<path fill-rule="evenodd" clip-rule="evenodd" d="M292.997 283.946L291.822 290.022H158.707L159.881 283.946H292.997Z" fill="#D7EBFF"/>
<path fill-rule="evenodd" clip-rule="evenodd" d="M303.041 272.896L301.869 278.97H293.958L295.132 272.896H303.041Z" fill="#CCE3FF"/>
<path fill-rule="evenodd" clip-rule="evenodd" d="M295.132 272.896L293.958 278.97H160.842L162.016 272.896H295.132Z" fill="#D7EBFF"/>
<path fill-rule="evenodd" clip-rule="evenodd" d="M297.268 261.847L296.096 267.921H304.004L305.176 261.847H297.268Z" fill="#CCE3FF"/>
<path fill-rule="evenodd" clip-rule="evenodd" d="M164.154 261.847L162.98 267.921H296.096L297.268 261.847H164.154Z" fill="#D7EBFF"/>
<path fill-rule="evenodd" clip-rule="evenodd" d="M258.045 301.823L249.311 341.093H255.089L263.823 301.823H258.045Z" fill="#CCE3FF"/>
<path fill-rule="evenodd" clip-rule="evenodd" d="M166.199 301.823L174.933 341.093H180.711L171.977 301.823H166.199Z" fill="#CCE3FF"/>
<path fill-rule="evenodd" clip-rule="evenodd" d="M143.624 323.823H172.784V317.748H143.624V323.823Z" fill="#D7EBFF"/>
<path fill-rule="evenodd" clip-rule="evenodd" d="M143.624 301.823L134.89 341.093H140.668L149.402 301.823H143.624Z" fill="#CCE3FF"/>
<path fill-rule="evenodd" clip-rule="evenodd" d="M385.013 263.33H389.129V86.5635H385.013V263.33Z" fill="#D7EBFF"/>
<path fill-rule="evenodd" clip-rule="evenodd" d="M342.717 91.0621L310.139 80.6393C308.778 80.204 308.034 78.773 308.485 77.4597L310.11 72.7283C310.561 71.4149 312.043 70.6966 313.404 71.1319L345.981 81.5546C347.342 81.9899 348.087 83.4209 347.636 84.7343L346.011 89.4657C345.559 90.779 344.076 91.4974 342.717 91.0621Z" fill="#ECF6FF"/>
<path fill-rule="evenodd" clip-rule="evenodd" d="M379.181 328.866H394.96V270.282H379.181V328.866Z" fill="#CCE3FF"/>
<path fill-rule="evenodd" clip-rule="evenodd" d="M382.526 281.207H391.616V261.162H382.526V281.207Z" fill="#CCE3FF"/>
<path fill-rule="evenodd" clip-rule="evenodd" d="M383.289 90.789H390.853V82.2897H383.289V90.789Z" fill="#CCE3FF"/>
<path d="M331.671 77.061C331.671 77.061 387.071 88.883 387.071 117.617" stroke="#DCEEFF" stroke-width="2.27014" stroke-linejoin="bevel"/>
<path fill-rule="evenodd" clip-rule="evenodd" d="M346.353 87.8657L310.64 76.4395C307.444 75.4172 305.696 72.0565 306.756 68.972L307.076 68.0378C308.136 64.9532 311.617 63.2659 314.814 64.2885L350.528 75.7144C353.723 76.737 355.471 80.0974 354.411 83.1823L354.091 84.1164C353.031 87.201 349.55 88.8883 346.353 87.8657Z" fill="#CCE3FF"/>
<path d="M302.906 180.276C302.668 180.585 302.546 180.915 302.561 181.264C302.097 182.754 301.847 184.33 301.845 185.96C301.843 186.168 301.847 186.376 301.855 186.583L301.829 204.621L337.293 204.675L337.32 186.038H337.307C337.307 186.028 337.307 186.019 337.307 186.009C337.323 176.781 329.396 169.288 319.602 169.274C311.927 169.263 305.385 173.849 302.906 180.276Z" fill="#19141E"/>
<path fill-rule="evenodd" clip-rule="evenodd" d="M316.732 202.834C316.732 202.834 320.059 202.928 321.478 202.181L316.91 204.949L316.732 202.834Z" fill="#CF3E83"/>
<path d="M323.881 191.568C321.979 191.42 310.265 190.246 303.827 183.285L303.796 183.294C303.796 183.294 303.639 198.613 309.317 201.759C311.085 202.737 314.103 202.98 316.732 202.834L317.337 210.045L325.922 206.636C325.922 206.636 325.099 198.68 324.741 195.625C326.468 194.113 329.406 193.413 329.411 190.845C329.414 189.959 328.876 188.419 326.89 188.417C324.222 188.414 324.602 191.496 324.602 191.496C324.362 191.586 324.121 191.606 323.881 191.568Z" fill="#E576C6"/>
<path fill-rule="evenodd" clip-rule="evenodd" d="M309.5 191.491L307.596 195.946L309.805 195.904L309.5 191.491Z" fill="#2437A8"/>
<path fill-rule="evenodd" clip-rule="evenodd" d="M311.527 191.685C311.575 192.574 312.116 193.268 312.739 193.233C313.36 193.198 313.826 192.449 313.779 191.559C313.731 190.669 313.188 189.975 312.567 190.01C311.945 190.044 311.48 190.794 311.527 191.685Z" fill="#0D0B6D"/>
<path fill-rule="evenodd" clip-rule="evenodd" d="M305.691 191.542C305.737 192.432 306.28 193.125 306.901 193.09C307.523 193.057 307.988 192.307 307.941 191.416C307.893 190.526 307.352 189.833 306.73 189.868C306.108 189.903 305.643 190.652 305.691 191.542Z" fill="#0D0B6D"/>
<path d="M310.348 198.037C310.348 198.037 311.786 198.485 313.228 196.938" stroke="#1C295E" stroke-width="0.5"/>
<path opacity="0.395159" fill-rule="evenodd" clip-rule="evenodd" d="M316.737 202.834C316.737 202.834 320.065 202.928 321.483 202.181L316.915 204.949L316.737 202.834Z" fill="black"/>
<path fill-rule="evenodd" clip-rule="evenodd" d="M363.945 352.457L357.638 346.37L359.828 340.213L373.082 350.761L364.098 370.611C364.098 370.611 363.303 365.17 363.344 359.611C363.371 355.772 363.945 352.457 363.945 352.457ZM287.754 367.229L289.176 362.021L295.645 362.254L290.555 376.819L270.372 364.616C276.462 362.542 287.754 367.229 287.754 367.229Z" fill="#0D0B6D"/>
<path fill-rule="evenodd" clip-rule="evenodd" d="M359.228 347.922L359.921 340.206L367.69 346.394L363.945 352.457L359.228 347.922ZM290.254 357.985L296.876 359.176L293.089 369.448L287.754 367.229L290.254 357.985Z" fill="#E576C6"/>
<path d="M323.564 322.926C333.845 342.675 351.543 359.416 351.543 359.416L367.389 336.739C367.389 336.739 346.279 318.85 336.317 279.349C337.991 272.86 339.181 267.514 339.599 264.087C340.969 252.868 334.055 245.313 332.2 243.51H331.348H310.502C310.056 245.111 308.289 254.079 308.9 267.289C307.061 273.191 304.906 280.315 302.409 288.869C288.199 337.552 281.609 359.022 281.609 359.022L308.624 368.322C308.624 368.322 316.378 345.911 323.564 322.926Z" fill="#0D0B6D"/>
<path opacity="0.14688" fill-rule="evenodd" clip-rule="evenodd" d="M281.609 359.022L308.624 368.322C308.624 368.322 316.739 344.87 324.058 321.343C328.63 306.665 333.275 291.122 336.317 279.349C337.991 272.86 339.181 267.514 339.599 264.087C340.969 252.868 334.055 245.313 332.2 243.51H316.904C315.632 246.826 313.07 253.939 308.9 267.289C307.061 273.191 304.906 280.315 302.409 288.869C288.199 337.552 281.609 359.022 281.609 359.022Z" fill="white"/>
<path fill-rule="evenodd" clip-rule="evenodd" d="M298.908 263.735C298.908 263.735 308.898 248.325 309.397 244.502C309.924 240.452 309.451 235.223 309.451 235.223L302.704 231.347L300.997 240.986L293.717 263.039" fill="#E576C6"/>
<path fill-rule="evenodd" clip-rule="evenodd" d="M352.485 262.855C352.485 262.855 352.802 240.518 351.332 236.841C349.861 233.162 347.2 228.23 347.2 228.23L339.306 233.323L343.54 239.939L346.457 262.505" fill="#E576C6"/>
<path fill-rule="evenodd" clip-rule="evenodd" d="M316.505 211.205L315.324 243.764L320.804 243.684L320.33 211.326L320.521 211.192L320.323 211.205C320.323 211.205 323.425 208.101 324.63 206.934C323.837 206.986 323.055 207.043 322.286 207.083C320.191 207.187 318.406 207.256 316.844 207.371C316.649 207.626 316.214 208.324 316.265 209.442C316.309 210.353 316.378 210.795 316.43 211.008C316.466 211.157 316.494 211.195 316.502 211.202L316.505 211.205Z" fill="#CE3D29"/>
<path d="M329.98 224.655L334.993 231.986" stroke="#FF9929" stroke-width="0.5"/>
<path fill-rule="evenodd" clip-rule="evenodd" d="M319.399 212.141C323.904 211.732 325.912 208.094 326.645 206.704C325.553 206.691 324.488 206.773 323.446 206.853C322.961 206.89 322.483 206.927 322.008 206.953C321.511 206.981 321.035 207.007 320.576 207.03C318.258 207.155 316.403 207.253 314.832 207.525C314.707 207.96 313.773 212.649 319.399 212.141ZM301.68 265.461L296.332 263.285C297.153 262.356 297.788 261.651 297.788 261.651C297.788 261.651 300.697 262.004 301.25 263.26C301.54 263.918 301.667 264.67 301.68 265.461ZM292.733 267.593C292.898 267.28 293.732 266.276 294.677 265.179L301.448 267.808C300.896 270.645 299.552 273.276 299.552 273.276C299.552 273.276 300.943 272.458 301.219 273.174C301.343 273.492 301.622 276.037 296.413 276.208C295.861 276.226 294.531 275.141 294.531 275.141C294.531 275.141 295.501 276.928 294.015 277.279C294.015 277.279 291.623 273.818 291.587 273.049C291.549 272.279 292.317 268.38 292.733 267.593ZM344.629 265.717L345.358 263.474L353.329 264.083C353.877 265.531 354.514 267.289 354.75 268.251C354.935 269.005 354.715 271.637 354.274 273.08C354.024 273.897 353.472 274.655 353.472 274.655C353.472 274.655 352.81 276.157 352.551 276.288C351.822 276.659 351.499 275.935 351.499 275.935C351.499 275.935 351.007 278.106 350.507 277.893C350.197 277.762 349.744 277.357 349.733 276.817C349.661 273.379 348.963 269.788 347.74 269.169C346.954 268.771 346.67 270.122 346.403 271.387C346.254 272.093 346.111 272.77 345.891 273.104C345.292 274.01 342.937 274.654 343.531 273.073C344.346 270.907 344.366 269.997 344.397 268.639C344.398 268.575 344.399 268.509 344.4 268.444C344.435 266.974 344.629 265.717 344.629 265.717Z" fill="#E576C6"/>
<path opacity="0.146601" d="M298.49 266.292C298.49 266.292 297.759 268.956 295.25 269.787C294.374 270.077 294.593 273.504 292.443 273.093" stroke="black" stroke-width="0.5"/>
<path fill-rule="evenodd" clip-rule="evenodd" d="M324.914 243.888V209.124H313.237V243.888H324.914ZM304.996 266.811L293.452 262.113L292.576 264.364L304.318 268.923L304.996 266.811ZM340.681 260.747L353.704 261.836L353.664 264.109L340.681 263.116V260.747Z" fill="#FCBDA4"/>
<path fill-rule="evenodd" clip-rule="evenodd" d="M345.357 263.473L340.681 263.116V260.747L353.704 261.836V261.838L354.742 261.92C354.742 261.92 354.415 242.279 350.509 231.581C347.093 222.227 340.859 212.069 335.991 209.111C335.7 208.935 335.41 208.769 335.121 208.617L336.081 207.358L325.525 204.535C325.525 204.535 325.849 205.759 324.74 206.827C324.718 206.849 324.695 206.871 324.671 206.894V206.895C324.656 206.907 324.642 206.92 324.629 206.934C323.425 208.101 320.322 211.205 320.322 211.205L320.521 211.192L320.33 211.326L320.804 243.684L321.462 288.89L348.446 288.105L346.384 271.479C346.242 272.151 346.102 272.785 345.891 273.104C345.292 274.009 342.936 274.654 343.531 273.073C344.346 270.907 344.366 269.997 344.396 268.638C344.398 268.574 344.399 268.509 344.4 268.444C344.435 266.973 344.629 265.717 344.629 265.717L345.357 263.473ZM305.596 267.053L303.185 288.89H313.687L315.323 243.764L310.106 243.837L315.323 243.764L316.504 211.205L316.502 211.202C316.494 211.195 316.466 211.157 316.43 211.008C316.378 210.795 316.309 210.353 316.265 209.442C316.214 208.324 316.648 207.626 316.844 207.371C316.901 207.299 316.937 207.261 316.937 207.261L316.746 205.528L308.421 209.509L308.855 209.73L310.394 210.518L308.855 209.73C308.644 209.888 308.436 210.06 308.23 210.244C301.479 216.223 300.494 238.055 300.494 238.055L292.598 261.764L305.596 267.053ZM310.862 219.319L308.341 242.169L310.862 219.319L312.532 210.817L310.61 210.628L312.532 210.817L310.862 219.319Z" fill="#CE3D29"/>
<path fill-rule="evenodd" clip-rule="evenodd" d="M316.502 211.202L316.43 211.008C316.466 211.158 316.494 211.195 316.502 211.202Z" fill="#CE3D29"/>
<path opacity="0.20459" d="M336.081 207.357C336.081 207.357 332.605 211.658 328.635 212.423C324.879 213.145 320.323 211.203 320.323 211.203" stroke="black" stroke-width="0.5"/>
<path opacity="0.20459" d="M308.421 209.51C308.421 209.51 308.726 211.644 310.17 212.179C312.701 213.115 315.998 211.042 315.998 211.042" stroke="black" stroke-width="0.5"/>
<path opacity="0.201265" d="M305.589 267.098L308.524 226.506" stroke="black" stroke-width="0.5"/>
<path opacity="0.201265" fill-rule="evenodd" clip-rule="evenodd" d="M311.745 228.359C311.772 229.212 312.385 229.888 313.117 229.867C313.848 229.845 314.419 229.135 314.392 228.282C314.365 227.428 313.752 226.753 313.021 226.775C312.289 226.796 311.719 227.505 311.745 228.359Z" fill="black"/>
<path opacity="0.201265" fill-rule="evenodd" clip-rule="evenodd" d="M312.405 216.972C312.432 217.825 313.045 218.5 313.776 218.479C314.507 218.458 315.078 217.748 315.051 216.895C315.025 216.04 314.41 215.365 313.68 215.387C312.949 215.408 312.378 216.117 312.405 216.972Z" fill="black"/>
<path opacity="0.201265" fill-rule="evenodd" clip-rule="evenodd" d="M311.086 239.746C311.113 240.6 311.727 241.275 312.457 241.254C313.188 241.232 313.759 240.523 313.732 239.669C313.707 238.816 313.092 238.141 312.361 238.162C311.63 238.183 311.059 238.893 311.086 239.746Z" fill="black"/>
<path opacity="0.196568" d="M329.98 223.104L334.993 237.583L337.225 260.377L340.681 260.747" stroke="black" stroke-width="0.5"/>
<path opacity="0.201265" d="M336.859 256.656L351.738 257.92" stroke="black" stroke-width="0.5"/>
<path opacity="0.201265" d="M305.589 263.736L296.112 259.601" stroke="black" stroke-width="0.5"/>
<path fill-rule="evenodd" clip-rule="evenodd" d="M120.366 177.984C120.366 181.543 117.994 184.43 115.069 184.43C112.143 184.43 109.772 181.543 109.772 177.984C109.772 174.424 112.143 171.539 115.069 171.539C117.994 171.539 120.366 174.424 120.366 177.984Z" fill="#19141E"/>
<path d="M107.831 203.518L107.609 196.115C107.609 196.115 116.909 196.831 118.899 195.831C118.899 195.831 121.33 183.714 118.43 177.003L118.371 176.741L98.7456 174.521L97.6454 185.415C96.9841 183.529 91.5281 181.39 90.1019 184.091C87.0111 189.944 98.0623 193.885 98.0623 193.885L96.9401 203.607" fill="#E576C6"/>
<path opacity="0.398926" fill-rule="evenodd" clip-rule="evenodd" d="M107.609 196.114L101.338 194.815L107.579 198.892L107.609 196.114Z" fill="black"/>
<path fill-rule="evenodd" clip-rule="evenodd" d="M112.622 185.276L114.789 190.401L112.192 190.433L112.622 185.276Z" fill="#405FD3"/>
<path fill-rule="evenodd" clip-rule="evenodd" d="M110.311 185.473C110.441 186.163 109.967 186.824 109.253 186.949C108.54 187.073 107.857 186.615 107.728 185.925C107.599 185.236 108.072 184.575 108.786 184.45C109.5 184.325 110.182 184.784 110.311 185.473Z" fill="#0D0B6D"/>
<path fill-rule="evenodd" clip-rule="evenodd" d="M117.593 185.473C117.723 186.163 117.249 186.824 116.535 186.949C115.822 187.073 115.139 186.615 115.01 185.925C114.881 185.236 115.354 184.575 116.068 184.45C116.782 184.325 117.464 184.784 117.593 185.473Z" fill="#0D0B6D"/>
<path d="M99.1026 187.275C97.2418 184.193 94.5496 183.254 93.3411 182.979C92.8591 181.63 92.4917 180.068 92.2335 178.406C91.5412 173.957 94.8849 169.899 97.5856 168.734C100.32 167.555 105.033 165.919 111.934 168.138C116.572 169.631 119.538 166.057 122.267 167.583C126.932 170.193 122.593 181.613 110.765 178.711C102.305 176.637 102.087 177.157 102.015 178.665C101.78 183.542 100.994 186.41 99.1026 187.275Z" fill="#2F2F3D"/>
<path fill-rule="evenodd" clip-rule="evenodd" d="M109.014 190.623C109.014 190.623 109.848 192.089 111.65 192.055L109.014 190.623Z" fill="white"/>
<path d="M109.014 190.623C109.014 190.623 109.848 192.089 111.65 192.055" stroke="#252535" stroke-width="0.605372"/>
<path fill-rule="evenodd" clip-rule="evenodd" d="M111.993 185.535C111.993 187.139 110.648 188.44 108.989 188.44C107.331 188.44 105.986 187.139 105.986 185.535C105.986 183.931 107.331 182.63 108.989 182.63C110.648 182.63 111.993 183.931 111.993 185.535Z" stroke="#252535" stroke-width="0.605372"/>
<path fill-rule="evenodd" clip-rule="evenodd" d="M119.555 185.535C119.555 187.139 118.211 188.44 116.552 188.44C114.893 188.44 113.549 187.139 113.549 185.535C113.549 183.931 114.893 182.63 116.552 182.63C118.211 182.63 119.555 183.931 119.555 185.535Z" stroke="#252535" stroke-width="0.605372"/>
<path d="M113.304 185.669H112.005" stroke="#252535" stroke-width="0.605372"/>
<path d="M105.986 185.535H98.5665" stroke="#252535" stroke-width="0.605372"/>
<path fill-rule="evenodd" clip-rule="evenodd" d="M115.554 369.904L115.627 363.832L107.522 359.889L106.346 377.246H134.427C129.649 372.048 115.554 369.904 115.554 369.904ZM79.5834 370.141L79.6565 363.321L74.3723 367.476L70.1201 369.763L68.7168 377.246H87.9365C85.5199 370.889 79.5834 370.141 79.5834 370.141Z" fill="#0D0B6D"/>
<path fill-rule="evenodd" clip-rule="evenodd" d="M79.6566 363.322L71.5514 360.969L70.12 369.763L79.5835 370.141L79.6566 363.322ZM115.627 363.832L107.522 361.481L106.869 369.527L115.554 369.904L115.627 363.832Z" fill="#E576C6"/>
<path d="M116.789 361.842L116.602 367.476H105.911L106.098 361.825C104.9 361.362 104.044 360.245 104.015 358.927L102.294 274.526L83.6994 359.735C83.4374 360.935 82.5168 361.864 81.3478 362.208L80.6488 367.476H69.4389L70.4037 361.66C69.4702 360.961 68.9292 359.811 69.1153 358.584L86.2349 245.65H101.706L101.705 245.607H120.443L119.319 358.768C119.304 360.257 118.232 361.502 116.789 361.842Z" fill="#2F2F3D"/>
<path opacity="0.197824" fill-rule="evenodd" clip-rule="evenodd" d="M102.199 275.864L105.48 261.817L103.012 304.404L102.199 275.864Z" fill="black"/>
<path d="M90.2375 245.756L92.0332 246.039L72.4511 361.127L70.6501 360.836L90.2375 245.756Z" fill="#EFEFEF"/>
<path fill-rule="evenodd" clip-rule="evenodd" d="M146.181 206.939L146.052 204.796C146.052 204.796 146.054 203.306 146.255 201.695C146.305 201.292 146.416 200.87 146.534 200.419C146.887 199.072 147.306 197.47 146.389 195.341C145.164 192.503 148.092 194.463 148.74 195.813C148.99 196.334 149.063 197.124 149.135 197.906C149.219 198.811 149.303 199.708 149.659 200.172C150.22 199.879 150.593 199.497 150.593 199.497L156.904 191.641C157.107 191.377 157.483 191.299 157.784 191.454L158.124 191.631C158.481 191.819 158.594 192.258 158.365 192.579C157.927 193.196 157.163 194.236 156.364 195.322V195.324C154.914 197.297 153.351 199.423 153.418 199.457L153.585 199.652L160.997 192.153C161.229 191.903 161.618 191.858 161.903 192.048L162.348 192.345C162.672 192.56 162.742 192.99 162.5 193.285C161.709 194.265 159.752 196.385 158.124 198.152C156.714 199.679 155.551 200.941 155.6 200.968L155.821 201.173L162.721 195.324C162.966 195.063 163.382 195.033 163.665 195.253L164.003 195.517C164.298 195.746 164.342 196.163 164.1 196.445L157.583 202.325L157.771 202.609L163.429 198.795C163.689 198.573 164.08 198.573 164.342 198.793L164.499 198.928C164.777 199.165 164.808 199.572 164.566 199.847C164.18 200.284 163.418 200.859 162.509 201.543C161.463 202.331 160.224 203.266 159.142 204.305C158.546 204.878 158.066 205.439 157.578 206.007C156.783 206.937 155.971 207.886 154.612 208.936C153.8 209.566 153.065 209.931 152.367 210.28C152.268 210.329 152.169 210.378 152.072 210.427L146.181 206.939ZM95.3127 202.023C95.3127 202.023 99.6729 202.015 102.82 202.005C105.966 201.995 109.923 203.271 109.923 203.271C109.923 203.271 111.982 207.733 104.83 207.328C97.6774 206.924 95.3127 202.023 95.3127 202.023ZM71.4644 220.079C71.4644 220.079 64.4846 230.187 64.6428 235.808C64.8296 242.434 86.7874 258.718 86.7874 258.718L92.478 254.246L78.6547 235.655L83.6817 225.325L71.4644 220.079Z" fill="#E576C6"/>
<path d="M90.8245 246.142L94.2237 250.543L83.9851 259.152C83.9851 259.152 65.1965 245.868 64.6163 235.453C64.2469 228.82 70.2634 219.351 70.2634 219.351C70.2634 219.351 77.8152 207.708 86.5448 203.779C88.3363 202.973 92.6797 202.3 95.3128 202.023C96.1198 201.938 95.6372 202.24 95.9143 202.754C96.2039 203.291 97.0849 204.085 97.6944 204.68C98.9632 205.916 101.463 206.852 102.807 207.044C103.83 207.189 105.808 207.417 106.76 207.294C107.711 207.17 108.746 206.756 109.022 206.509C109.299 206.263 109.71 205.955 109.923 205.481C110.137 205.007 110.126 205.142 110.126 204.705C110.126 204.267 110.102 204.331 110.058 204.124C110.014 203.915 110.014 203.79 109.987 203.682C109.871 203.206 109.923 203.271 109.923 203.271C115.077 204.772 117.687 205.327 119.564 207.512L133.911 217.224L143.728 204.868L156.393 213.071C156.393 213.071 145.179 233.225 137.051 235.453C130.504 237.248 123.872 231.666 121.54 229.427L124.311 242.994C124.755 245.337 122.628 246.223 120.734 246.14L90.8245 246.142Z" fill="#72A065"/>
<path opacity="0.201242" fill-rule="evenodd" clip-rule="evenodd" d="M121.496 229.435L119.782 222.899L124.412 231.832L121.496 229.435Z" fill="black"/>
<path opacity="0.200591" d="M89.5528 244.568L81.5573 233.63L91.2154 219.502" stroke="black" stroke-width="0.756715"/>
</svg>
