<svg width="16" height="16" viewBox="0 0 16 16" fill="none" xmlns="http://www.w3.org/2000/svg">
<path fill-rule="evenodd" clip-rule="evenodd" d="M8.57661 1.99748C8.31974 1.55471 7.68028 1.55471 7.42341 1.99748L5.61402 5.11569C5.4871 5.33441 5.26774 5.48367 5.0177 5.52143L1.62682 6.03359C1.0573 6.11961 0.857523 6.83867 1.30106 7.20613L3.82712 9.29893C4.06095 9.49267 4.1709 9.79827 4.1141 10.0965L3.45332 13.5667C3.34886 14.1152 3.92472 14.5414 4.41882 14.2813L7.61174 12.6C7.85474 12.4721 8.14521 12.4721 8.38828 12.6L11.5812 14.2813C12.0753 14.5414 12.6511 14.1152 12.5467 13.5667L11.8859 10.0965C11.8291 9.79827 11.9391 9.49267 12.1729 9.29893L14.6989 7.20613C15.1425 6.83867 14.9427 6.11961 14.3732 6.03359L10.9823 5.52143C10.7323 5.48367 10.5129 5.33441 10.386 5.11569L8.57661 1.99748Z" fill="white"/>
</svg>
